<?xml version="1.0" standalone="no"?>
<!DOCTYPE svg PUBLIC "-//W3C//DTD SVG 20010904//EN"
 "http://www.w3.org/TR/2001/REC-SVG-20010904/DTD/svg10.dtd">
<svg version="1.0" xmlns="http://www.w3.org/2000/svg"
 width="620.000000pt" height="620.000000pt" viewBox="0 0 620.000000 620.000000"
 preserveAspectRatio="xMidYMid meet">

<g transform="translate(0.000000,620.000000) scale(0.100000,-0.100000)"
fill="#000000" stroke="none">
<path d="M2873 5853 c20 -2 54 -2 75 0 20 2 3 4 -38 4 -41 0 -58 -2 -37 -4z"/>
<path d="M3253 5853 c15 -2 39 -2 55 0 15 2 2 4 -28 4 -30 0 -43 -2 -27 -4z"/>
<path d="M2850 5685 c-52 -7 -117 -16 -145 -19 -27 -4 -66 -11 -85 -16 -19 -5
-57 -14 -85 -21 -27 -6 -88 -25 -135 -41 -47 -16 -107 -36 -135 -45 -27 -8
-59 -19 -70 -23 -11 -5 -45 -16 -75 -26 -30 -9 -68 -25 -85 -34 -16 -9 -50
-22 -75 -30 -73 -22 -179 -78 -277 -146 -50 -35 -96 -64 -102 -64 -5 0 -37
-27 -70 -60 -33 -32 -84 -73 -113 -89 -29 -17 -69 -47 -88 -67 -47 -50 -224
-166 -242 -159 -20 8 -105 -89 -215 -245 -59 -83 -153 -233 -153 -244 0 -3 11
6 25 19 28 29 65 33 65 8 0 -10 -9 -33 -20 -51 -24 -39 -25 -53 -5 -46 8 4 15
12 15 18 0 7 20 27 45 44 26 18 44 36 41 41 -6 10 27 51 40 51 5 0 19 -8 31
-18 25 -19 28 -8 -32 -121 -29 -54 -79 -166 -107 -236 -11 -27 -30 -73 -44
-103 -13 -29 -24 -61 -24 -71 0 -28 -36 -164 -50 -191 -13 -24 -22 -54 -41
-135 -28 -122 -64 -588 -55 -715 18 -255 27 -349 36 -395 6 -27 15 -102 20
-165 11 -137 18 -188 30 -215 5 -11 11 -27 14 -35 3 -8 4 1 1 20 -3 19 -10 78
-15 130 -6 52 -15 129 -21 170 -18 148 -21 263 -7 303 8 21 18 39 22 40 5 1
22 -47 38 -108 15 -60 32 -119 37 -130 5 -11 23 -67 42 -125 60 -193 130 -371
189 -485 93 -179 167 -290 260 -390 30 -33 81 -94 112 -135 31 -41 83 -98 115
-126 37 -33 70 -74 92 -115 35 -67 86 -129 107 -129 7 0 14 -3 16 -8 13 -29
193 -142 227 -142 9 0 73 -28 219 -96 157 -74 384 -149 557 -184 33 -6 80 -16
105 -22 26 -6 158 -10 306 -9 206 0 274 4 320 17 33 8 86 22 119 29 64 14 157
48 190 69 11 8 34 16 51 20 16 4 70 29 120 57 49 28 107 61 129 73 22 12 60
30 85 40 25 10 92 43 149 74 134 73 144 79 220 131 36 24 99 56 140 71 334
120 319 113 394 174 76 61 134 220 167 452 7 48 20 91 43 130 111 200 165 345
250 669 51 193 73 331 62 396 -3 24 -9 86 -11 136 -5 91 -5 93 19 102 24 9 34
29 58 106 6 22 16 49 20 60 5 11 10 38 11 59 4 47 25 59 34 19 26 -113 78
-203 118 -203 21 0 56 -49 56 -76 0 -15 6 -24 15 -24 8 0 15 7 15 15 0 9 9 42
20 74 30 90 30 158 -1 361 -36 244 -44 284 -78 403 -6 17 -18 61 -29 97 -10
36 -24 75 -30 87 -7 12 -12 30 -12 41 0 10 -9 27 -19 36 -11 10 -33 45 -49 79
-17 34 -39 73 -51 87 -63 77 -134 183 -160 238 -32 68 -52 92 -74 92 -16 0
-60 47 -141 150 -63 79 -247 264 -331 332 -27 22 -81 70 -120 107 -124 119
-263 206 -446 276 -154 60 -173 68 -202 88 -26 18 -122 57 -139 57 -4 0 -5 -6
-2 -14 4 -11 -10 -15 -63 -20 -176 -15 -245 -16 -328 -6 -243 31 -622 44 -755
25z m1415 -175 c3 -5 15 -10 26 -10 11 0 38 -9 61 -21 22 -11 65 -23 95 -26
29 -3 56 -10 59 -14 3 -5 14 -9 24 -9 42 0 167 -85 256 -174 33 -34 87 -83
120 -111 71 -60 83 -74 84 -99 0 -15 -5 -17 -31 -12 -17 3 -49 19 -72 35 -86
59 -171 110 -176 106 -2 -3 -2 -6 0 -8 35 -23 148 -124 237 -211 145 -142 202
-219 202 -277 0 -56 -47 -22 -91 65 -7 16 -34 45 -57 65 -24 20 -56 46 -70 58
-15 13 -33 23 -40 23 -7 0 -45 24 -85 53 -40 30 -101 74 -137 100 -36 25 -69
50 -75 54 -39 32 -278 162 -465 254 -191 93 -195 96 -195 111 0 10 16 12 63
11 40 -2 62 1 62 8 0 25 102 -8 225 -72 284 -148 351 -184 356 -192 4 -5 12
-8 19 -5 28 9 -158 131 -331 219 -80 40 -105 61 -94 79 8 13 22 13 30 0z
m-983 -71 c9 -5 29 -9 45 -9 37 0 106 -25 111 -39 3 -8 -23 -9 -95 -4 -143 12
-445 8 -543 -6 -176 -25 -270 -46 -448 -102 -101 -32 -126 -33 -103 -5 37 44
156 99 261 121 19 4 53 11 75 16 64 15 173 31 270 39 108 9 403 1 427 -11z
m298 -247 c212 -17 397 -83 555 -197 44 -32 109 -78 145 -102 141 -96 166
-114 195 -146 17 -17 67 -63 110 -102 83 -72 145 -133 305 -304 142 -151 249
-318 300 -471 20 -58 21 -71 10 -120 -6 -30 -20 -70 -31 -88 -10 -18 -19 -44
-19 -57 0 -13 -5 -36 -12 -50 -9 -20 -9 -48 2 -123 14 -106 28 -144 63 -167
20 -13 27 -12 74 11 83 41 89 34 96 -135 21 -447 -51 -799 -240 -1174 -85
-171 -200 -337 -231 -337 -5 0 -40 -35 -77 -77 -106 -122 -254 -270 -330 -331
-38 -31 -72 -59 -75 -62 -25 -28 -129 -106 -190 -142 -137 -80 -306 -155 -355
-156 -22 -1 -56 -6 -75 -12 -19 -5 -56 -10 -82 -10 -34 0 -54 -6 -68 -20 -10
-10 -22 -15 -25 -10 -7 11 -145 3 -181 -10 -34 -13 -503 -13 -578 0 -56 10
-179 39 -251 60 -16 4 -84 22 -150 40 -106 27 -172 46 -295 81 -19 6 -60 20
-90 31 -49 19 -93 38 -264 119 -100 46 -345 263 -433 383 -67 91 -187 341
-245 511 -14 42 -22 61 -52 128 -14 32 -26 63 -26 70 0 7 -8 29 -19 49 -37 73
-61 146 -92 283 -17 77 -36 156 -41 175 -39 138 -27 527 22 730 6 25 14 59 17
75 5 29 5 29 -11 10 -8 -11 -16 -34 -16 -52 0 -17 -4 -35 -10 -38 -5 -3 -10
-21 -10 -40 0 -41 -9 -67 -21 -59 -12 7 -12 87 0 100 5 5 11 27 14 49 3 22 10
58 16 80 5 22 14 58 20 79 5 21 13 42 18 45 5 3 14 17 21 31 10 22 11 18 6
-30 -3 -30 -10 -67 -15 -82 -6 -14 -9 -34 -7 -44 1 -9 21 37 43 102 21 65 73
184 114 264 40 80 87 172 104 205 38 76 281 387 343 440 73 61 198 155 207
155 5 0 44 25 87 55 43 30 80 55 83 55 2 0 47 24 100 54 52 30 113 60 134 67
21 7 43 16 48 20 14 9 125 34 215 49 41 6 111 20 155 30 44 10 114 25 155 34
41 8 107 22 145 31 39 9 104 21 145 26 41 5 111 15 155 23 83 15 189 14 395
-2z m-1935 -279 c0 -5 -29 -34 -65 -63 -91 -76 -145 -126 -209 -195 -31 -33
-74 -78 -96 -100 -22 -22 -47 -52 -54 -67 -17 -32 -48 -68 -60 -68 -5 0 -12
-11 -15 -24 -7 -27 -34 -42 -49 -27 -7 7 -5 16 4 28 21 27 25 32 76 109 58 86
93 125 204 226 46 42 102 93 124 113 67 63 140 99 140 68z m3045 -54 c0 -5 -8
-9 -18 -9 -18 0 -45 33 -35 43 7 8 53 -22 53 -34z m82 -47 c117 -75 220 -168
284 -254 38 -51 74 -102 81 -113 17 -27 16 -65 0 -65 -17 0 -36 22 -71 83 -38
67 -147 189 -220 247 -117 94 -126 102 -126 111 0 14 23 10 52 -9z m308 -212
c0 -5 -5 -10 -11 -10 -5 0 -7 5 -4 10 3 6 8 10 11 10 2 0 4 -4 4 -10z m51 -47
c33 -42 48 -83 30 -83 -16 0 -71 63 -71 82 0 23 23 23 41 1z m82 -139 c-3 -8
-9 -14 -14 -14 -13 0 -31 39 -23 51 9 15 44 -19 37 -37z m53 -141 c9 -21 28
-61 43 -90 21 -43 23 -55 13 -65 -11 -11 -17 -8 -32 12 -11 14 -20 30 -20 36
0 5 -12 34 -26 62 -21 42 -24 55 -14 67 17 20 17 20 36 -22z m247 -371 c48
-53 79 -198 40 -190 -20 4 -36 33 -54 98 -7 25 -16 49 -21 55 -13 15 -9 55 5
55 8 0 21 -8 30 -18z m47 -572 c0 -13 -7 -20 -20 -20 -23 0 -26 10 -8 28 18
18 28 15 28 -8z m-4690 -67 c-1 -51 -4 -73 -10 -63 -8 14 -2 140 6 140 2 0 4
-35 4 -77z m-18 -246 l-10 -42 -1 60 c0 46 2 56 10 42 7 -11 7 -32 1 -60z m22
-209 c3 -13 7 -43 10 -68 7 -66 22 -136 45 -210 12 -36 26 -82 31 -102 6 -21
15 -57 21 -80 6 -24 15 -52 19 -63 5 -11 23 -56 40 -100 52 -128 83 -236 72
-247 -6 -6 -15 0 -25 19 -31 58 -70 139 -77 158 -4 11 -12 31 -18 45 -28 61
-84 243 -103 330 -33 150 -50 340 -30 340 6 0 13 -10 15 -22z m4254 -1193 c2
-15 -1 -38 -6 -49 -6 -12 -13 -45 -16 -75 -6 -59 -49 -141 -102 -195 -29 -28
-128 -68 -226 -90 -51 -11 -31 25 65 125 96 98 182 201 232 277 31 47 48 50
53 7z"/>
<path d="M3302 5051 c-56 -14 -49 -22 18 -20 36 1 88 -2 115 -5 46 -7 49 -6
31 8 -11 9 -29 16 -40 16 -12 0 -37 2 -56 5 -19 2 -50 0 -68 -4z"/>
<path d="M2035 4174 c-137 -50 -213 -116 -241 -210 -18 -64 -8 -113 32 -156
45 -46 50 -38 50 80 -1 100 1 110 27 150 74 114 234 161 364 107 146 -61 126
-307 -28 -347 -78 -20 -79 -18 -79 138 l0 137 -47 -7 c-26 -3 -51 -10 -55 -14
-5 -5 -7 -177 -6 -383 l3 -374 50 0 50 0 5 230 5 230 63 3 c60 3 65 1 98 -32
33 -33 40 -58 37 -131 -1 -11 -2 -74 -3 -139 -1 -103 1 -123 17 -144 24 -32
64 -46 108 -38 l34 7 -22 37 c-20 34 -22 50 -22 207 0 194 -3 205 -81 250
l-45 26 35 39 c67 74 86 172 46 237 -55 91 -268 143 -395 97z"/>
<path d="M2781 3883 c-55 -11 -114 -66 -144 -133 -68 -156 -40 -357 61 -429
46 -32 123 -47 171 -32 40 11 98 71 115 116 16 41 36 152 36 197 0 50 6 58 53
67 52 11 44 30 -15 33 -52 3 -53 4 -59 38 -10 58 -26 87 -61 113 -34 26 -108
40 -157 30z m144 -70 c30 -31 32 -54 5 -78 -29 -26 -25 -53 10 -73 29 -17 30
-19 30 -92 0 -121 -32 -189 -99 -209 -55 -16 -99 4 -132 62 -22 38 -24 53 -23
154 0 61 5 118 11 125 6 7 13 25 16 39 15 59 82 111 133 101 13 -2 35 -16 49
-29z"/>
<path d="M3315 3885 c-5 -2 -22 -6 -38 -9 -31 -7 -107 -72 -107 -91 0 -8 8
-11 19 -8 14 3 21 -2 26 -18 6 -18 1 -29 -27 -55 -19 -17 -40 -33 -48 -36 -32
-10 -29 -192 5 -264 51 -108 198 -157 282 -95 61 45 102 149 103 258 0 82 5
92 51 99 56 9 51 32 -8 36 l-46 3 -17 53 c-17 51 -48 95 -80 112 -18 10 -101
21 -115 15z m126 -71 c30 -27 34 -54 10 -70 -33 -23 -28 -66 10 -88 l32 -19
-7 -80 c-7 -81 -30 -152 -57 -173 -8 -6 -31 -17 -51 -23 -103 -34 -175 99
-148 275 25 173 125 256 211 178z"/>
<path d="M3853 3882 c-25 -8 -69 -44 -75 -63 -7 -22 -28 1 -28 32 0 30 0 30
-52 27 l-53 -3 -3 -49 c-5 -72 1 -81 37 -60 25 15 32 15 45 5 9 -8 16 -19 16
-26 0 -13 -55 -65 -70 -65 -23 0 -30 -47 -30 -195 0 -89 4 -165 10 -176 7 -12
21 -19 38 -19 56 0 57 2 60 220 3 184 5 204 25 243 30 56 63 72 110 52 49 -20
57 -62 57 -303 0 -173 2 -201 16 -206 25 -10 62 -7 70 6 4 6 8 102 9 212 2
200 8 238 42 273 22 24 60 32 92 20 52 -19 61 -54 61 -240 0 -215 14 -250 107
-277 37 -11 45 -10 74 6 35 21 83 100 93 152 8 48 -9 39 -32 -17 -35 -84 -106
-102 -134 -33 -6 16 -11 101 -12 207 -1 149 -4 185 -18 211 -50 90 -184 96
-240 10 -28 -43 -38 -45 -60 -7 -28 51 -100 80 -155 63z"/>
<path d="M2085 3135 c-108 -19 -179 -65 -222 -142 -20 -36 -16 -147 6 -191 29
-57 102 -81 146 -48 18 13 18 14 -5 46 -19 26 -23 45 -22 101 0 59 4 75 27
104 35 47 79 68 145 69 118 1 176 -63 187 -207 13 -171 -54 -305 -262 -527
-151 -162 -216 -258 -244 -365 -15 -54 -14 -128 2 -147 11 -15 16 -15 52 -2
71 27 187 22 362 -17 68 -15 250 -11 282 5 45 24 61 58 61 128 0 84 -11 99
-39 59 -45 -63 -157 -82 -361 -61 -63 6 -145 14 -182 17 -78 7 -82 13 -47 88
29 62 92 129 212 228 248 205 356 367 357 538 0 182 -102 299 -287 328 -84 13
-77 13 -168 -4z"/>
<path d="M3050 3136 c-104 -20 -180 -69 -217 -139 -17 -35 -19 -147 -2 -179
23 -44 61 -68 108 -68 27 0 52 6 62 16 17 16 17 18 -10 58 -73 107 -37 218 79
246 128 31 250 -60 253 -189 3 -116 -71 -225 -197 -291 l-66 -35 63 -20 c78
-26 117 -53 168 -117 110 -139 99 -358 -22 -462 -47 -40 -85 -51 -174 -51 -77
0 -144 32 -181 88 -22 33 -27 53 -28 106 0 37 5 81 13 99 14 33 55 62 86 62
27 0 13 32 -24 57 -41 28 -73 29 -127 4 -52 -23 -77 -60 -93 -133 -21 -97 6
-196 74 -276 66 -77 184 -117 320 -109 170 9 327 106 393 240 57 118 57 197
-1 316 -26 53 -78 99 -168 146 -38 20 -69 38 -69 40 0 3 33 37 74 77 57 57 78
86 95 131 66 180 -17 323 -217 371 -91 23 -123 24 -192 12z"/>
<path d="M3780 3138 c-40 -6 -61 -15 -77 -34 -46 -51 -19 -168 47 -207 33 -20
40 -21 40 -6 0 6 7 26 16 44 26 55 83 75 208 75 103 0 199 -14 224 -33 6 -5
12 -16 12 -24 0 -26 -49 -114 -128 -232 -42 -63 -97 -144 -121 -180 -114 -170
-172 -326 -174 -464 -2 -123 15 -180 70 -234 39 -40 46 -43 96 -43 29 0 60 6
69 13 15 11 14 17 -4 67 -18 47 -21 79 -21 215 -1 120 3 174 15 215 9 30 24
80 33 110 28 92 119 264 269 505 47 74 83 161 73 172 -4 3 -46 5 -94 4 -48 -1
-131 3 -183 9 -261 31 -318 35 -370 28z"/>
<path d="M5311 4853 c47 -48 149 -169 177 -208 4 -6 19 -26 34 -46 25 -34 38
-56 96 -159 14 -25 36 -58 48 -73 22 -26 24 -27 24 -8 0 25 -66 130 -153 244
-35 45 -80 105 -101 132 -56 73 -154 175 -168 175 -7 0 13 -26 43 -57z"/>
<path d="M681 4324 c0 -11 3 -14 6 -6 3 7 2 16 -1 19 -3 4 -6 -2 -5 -13z"/>
<path d="M623 4226 c-10 -13 -27 -43 -37 -67 -10 -24 -22 -52 -27 -61 -5 -10
-9 -28 -8 -40 0 -15 2 -17 6 -8 8 24 34 81 65 143 30 61 31 71 1 33z"/>
<path d="M352 2675 c-2 -86 17 -187 67 -367 6 -21 15 -53 20 -70 5 -18 25 -80
45 -138 21 -58 44 -124 52 -148 8 -23 25 -58 38 -77 13 -18 38 -71 57 -117 33
-83 69 -149 121 -222 39 -55 35 -42 -18 55 -26 46 -52 95 -60 109 -22 42 -90
193 -103 230 -7 19 -17 44 -22 55 -11 24 -88 257 -100 300 -4 17 -20 71 -34
120 -39 131 -45 160 -54 260 l-8 90 -1 -80z"/>
<path d="M751 1852 c-1 -27 21 -102 30 -102 8 0 2 35 -11 65 -5 11 -11 29 -13
40 -4 18 -5 17 -6 -3z"/>
<path d="M791 1724 c0 -11 3 -14 6 -6 3 7 2 16 -1 19 -3 4 -6 -2 -5 -13z"/>
<path d="M751 1704 c0 -11 3 -14 6 -6 3 7 2 16 -1 19 -3 4 -6 -2 -5 -13z"/>
<path d="M814 1575 c5 -11 13 -33 19 -50 11 -33 20 -48 117 -211 54 -91 88
-132 206 -251 78 -79 146 -143 152 -143 6 0 -23 35 -65 77 -177 180 -293 333
-381 503 -43 84 -62 114 -48 75z"/>
<path d="M3460 260 c0 -5 5 -10 10 -10 6 0 10 5 10 10 0 6 -4 10 -10 10 -5 0
-10 -4 -10 -10z"/>
</g>
</svg>
