<?xml version="1.0" standalone="no"?>
<!DOCTYPE svg PUBLIC "-//W3C//DTD SVG 20010904//EN"
 "http://www.w3.org/TR/2001/REC-SVG-20010904/DTD/svg10.dtd">
<svg version="1.0" xmlns="http://www.w3.org/2000/svg"
 width="260.000000pt" height="260.000000pt" viewBox="0 0 260.000000 260.000000"
 preserveAspectRatio="xMidYMid meet">

<g transform="translate(0.000000,260.000000) scale(0.100000,-0.100000)"
fill="#000000" stroke="none">
<path d="M849 2574 c-6 -8 -15 -12 -19 -9 -4 2 -18 -5 -31 -16 -13 -11 -30
-24 -37 -28 -7 -4 -14 -20 -15 -37 -1 -16 -6 -32 -12 -36 -6 -5 -5 -8 3 -8 7
0 11 -4 8 -8 -3 -4 0 -26 5 -48 6 -21 11 -44 11 -51 1 -6 12 -13 25 -16 22 -4
22 -3 8 13 -8 9 -12 20 -8 23 3 4 1 7 -6 7 -8 0 -11 11 -10 28 2 15 0 32 -3
38 -10 16 13 84 29 84 7 0 13 5 13 10 0 6 6 10 13 8 6 -1 22 3 35 10 28 16 61
0 169 -85 13 -10 23 -25 23 -33 0 -9 14 -24 31 -34 16 -10 37 -33 46 -51 9
-19 20 -32 25 -29 4 3 5 -1 3 -8 -5 -12 22 -50 70 -99 21 -22 19 -39 -6 -39
-22 0 -49 22 -49 39 0 6 -5 11 -11 11 -14 0 -39 25 -39 39 0 6 -5 11 -11 11
-6 0 -8 7 -5 17 4 10 4 15 1 11 -7 -7 -60 39 -60 52 0 4 -11 19 -25 33 -39 40
-49 54 -42 63 4 4 2 4 -4 1 -7 -4 -17 0 -24 8 -15 18 -56 20 -66 4 -4 -8 -9
-7 -15 2 -12 20 -5 -30 9 -61 6 -14 27 -47 46 -74 20 -27 33 -53 30 -57 -3 -5
-1 -9 4 -9 12 0 34 -49 27 -61 -4 -5 -1 -9 5 -9 6 0 8 -4 5 -10 -4 -6 1 -7 12
-3 10 3 15 3 11 -2 -4 -4 -3 -14 3 -22 9 -10 8 -13 -1 -13 -8 0 -10 -3 -7 -7
10 -10 -50 -33 -68 -27 -8 3 -17 14 -20 25 -4 10 -11 19 -16 19 -5 0 -9 6 -9
14 0 7 -7 19 -15 26 -8 7 -13 16 -10 20 3 4 -2 13 -10 20 -8 7 -15 18 -15 24
0 17 -49 66 -66 66 -12 0 -9 -7 10 -31 14 -17 26 -37 26 -45 0 -8 5 -14 10
-14 6 0 10 -5 10 -12 0 -6 6 -19 14 -27 8 -9 16 -22 18 -30 2 -7 13 -25 26
-39 48 -54 -3 -70 -54 -18 -20 20 -63 59 -97 86 -34 28 -68 55 -74 61 -7 5
-13 7 -13 4 0 -3 -15 5 -33 19 -57 43 -121 67 -163 60 -58 -9 -111 -51 -122
-94 -14 -59 -1 -160 21 -160 4 0 7 -7 7 -15 0 -9 7 -18 15 -21 9 -4 14 -12 13
-18 -3 -13 66 -86 80 -86 4 0 15 -9 25 -20 20 -23 39 -27 31 -5 -4 8 -12 15
-20 15 -13 0 -19 13 -15 33 1 5 -3 6 -9 2 -5 -3 -10 1 -10 10 0 9 -9 19 -20
22 -11 3 -20 10 -20 15 0 5 -16 28 -35 50 -19 22 -34 43 -33 47 1 3 -2 22 -5
41 -8 42 5 106 21 102 7 -1 11 3 10 10 -2 7 4 12 12 13 8 0 15 7 14 16 -1 12
11 14 65 12 36 -1 67 -7 69 -13 2 -5 7 -8 12 -5 4 2 20 -7 34 -20 15 -14 31
-25 35 -25 5 0 23 -13 40 -29 16 -15 33 -26 36 -23 3 3 5 0 5 -6 0 -7 6 -12
13 -12 8 0 26 -13 40 -30 15 -16 32 -30 37 -30 5 0 12 -11 16 -25 3 -14 10
-22 15 -19 5 3 9 0 9 -6 0 -6 11 -15 24 -20 19 -7 24 -15 22 -39 -1 -16 2 -28
6 -25 4 3 8 0 8 -5 0 -16 -46 -13 -59 2 -6 8 -8 17 -4 21 4 4 0 4 -9 1 -8 -3
-22 0 -29 7 -8 7 -32 25 -54 40 -22 14 -54 40 -72 56 -20 18 -34 25 -37 18 -2
-6 -5 -3 -5 6 -1 9 -10 23 -21 31 -11 8 -17 17 -12 22 4 5 2 5 -4 2 -6 -3 -24
2 -41 13 -24 14 -34 16 -43 7 -10 -9 -11 -9 -6 1 4 6 3 12 -3 12 -16 0 -29
-31 -23 -54 8 -31 62 -116 74 -116 6 0 8 -6 5 -14 -3 -8 2 -16 14 -19 12 -3
17 -1 13 6 -3 7 4 1 15 -12 12 -12 18 -27 15 -32 -3 -5 -1 -8 4 -7 6 2 11 -1
12 -7 3 -18 32 -45 42 -39 5 3 12 -3 15 -15 3 -12 13 -21 25 -21 11 0 16 -5
13 -11 -4 -6 2 -13 14 -16 12 -3 21 -10 21 -15 0 -5 -5 -6 -11 -2 -8 4 -8 0 0
-15 7 -11 14 -21 17 -21 3 0 2 5 -2 12 -5 7 -3 8 6 3 10 -6 9 -11 -4 -21 -17
-12 -26 -11 -66 3 -8 4 -22 7 -30 9 -8 2 -16 8 -18 13 -2 6 -8 11 -14 11 -6 0
-27 14 -48 30 -41 32 -73 40 -64 15 4 -8 11 -15 18 -15 6 0 31 -19 54 -42 l44
-41 -9 -56 c-4 -31 -8 -130 -8 -221 l0 -165 -27 -12 c-22 -9 -28 -19 -28 -42
0 -16 -4 -33 -10 -36 -22 -13 0 -95 25 -95 7 0 20 -11 29 -25 12 -17 26 -25
46 -25 27 0 33 -7 57 -54 26 -54 26 -55 9 -94 -14 -31 -16 -44 -7 -61 8 -15 9
-27 2 -40 -16 -28 5 -77 38 -90 25 -11 27 -16 25 -64 -1 -29 -2 -76 -3 -104
-1 -38 -5 -53 -15 -53 -18 0 -61 -58 -86 -115 -11 -25 -18 -45 -16 -45 2 0 0
-16 -4 -36 -6 -27 -5 -37 6 -41 8 -3 12 -9 9 -13 -3 -4 2 -13 10 -20 8 -7 15
-19 15 -26 0 -8 3 -13 8 -12 4 1 16 -3 27 -9 11 -5 52 -11 90 -13 39 -1 90 -3
115 -4 25 -1 54 -7 65 -12 11 -6 41 -17 68 -24 26 -7 50 -17 53 -22 3 -4 10
-6 15 -2 11 7 69 -17 69 -29 0 -5 4 -5 10 -2 5 3 10 -2 10 -12 0 -14 2 -15 9
-5 4 8 11 13 14 12 4 -1 20 -5 37 -10 17 -5 30 -5 30 0 0 5 -18 15 -40 21 -22
7 -40 16 -40 20 0 4 -8 6 -18 4 -10 -2 -41 8 -69 21 -29 13 -64 26 -78 30 -14
3 -25 10 -25 16 0 5 -4 7 -9 4 -13 -8 -34 21 -25 35 4 8 3 9 -5 5 -12 -8 -131
104 -131 122 0 5 -7 15 -15 22 -8 7 -12 16 -9 21 3 5 0 9 -6 9 -10 0 -28 34
-37 70 -7 31 -8 150 0 150 4 0 7 6 6 13 -5 40 11 43 76 16 17 -6 41 -13 55
-14 14 -1 31 -3 38 -4 7 0 11 -5 8 -9 -3 -5 0 -9 7 -10 7 0 26 -3 42 -7 17 -4
44 -8 60 -10 17 -2 30 -4 30 -5 0 -2 9 -4 20 -6 11 -1 31 -5 45 -9 27 -6 64
-11 150 -20 60 -6 93 -11 127 -19 13 -2 25 -1 28 5 4 5 13 5 23 0 9 -5 36 -8
60 -6 23 1 42 -1 42 -6 0 -8 33 -4 50 6 6 3 10 1 10 -5 0 -7 6 -8 17 -2 9 5
29 6 44 2 15 -5 30 -5 34 -2 10 10 60 8 67 -3 5 -6 8 -5 8 3 0 7 5 10 10 7 6
-3 10 -1 10 6 0 8 4 8 15 -1 12 -10 15 -10 15 0 0 8 3 11 6 8 3 -4 21 0 40 8
33 14 35 13 46 -10 6 -14 16 -22 22 -19 6 4 5 -1 -3 -10 -7 -9 -11 -26 -8 -36
3 -14 1 -18 -10 -14 -11 4 -14 1 -11 -8 3 -8 -2 -19 -11 -26 -11 -8 -12 -12
-3 -13 6 0 12 -5 12 -10 0 -6 -6 -9 -12 -8 -7 2 -12 -2 -11 -9 2 -7 -4 -10
-12 -7 -9 4 -15 0 -15 -10 0 -9 -6 -13 -14 -10 -14 5 -30 -22 -21 -36 3 -5 0
-12 -6 -16 -8 -4 -9 -3 -5 4 4 7 3 12 -2 12 -10 0 -26 -31 -20 -40 2 -3 9 -5
17 -5 8 0 16 -9 18 -20 5 -30 12 -88 12 -108 1 -12 5 -16 14 -11 9 6 9 5 0 -8
-7 -8 -10 -18 -6 -21 3 -4 1 -7 -4 -7 -6 0 -14 6 -16 13 -3 7 -6 5 -6 -5 -1
-20 -26 -35 -56 -34 -13 1 -27 14 -39 39 -15 32 -16 42 -6 68 7 16 25 36 41
44 31 17 53 42 26 32 -9 -3 -18 -1 -21 6 -2 7 -5 6 -5 -4 -1 -10 -9 -15 -23
-14 -14 2 -32 -8 -45 -22 -13 -15 -24 -20 -28 -14 -8 14 -25 14 -25 0 0 -5 4
-7 10 -4 6 3 7 -1 4 -10 -4 -9 3 -23 19 -35 28 -22 41 -57 23 -63 -8 -3 -8 -9
1 -24 9 -16 8 -22 -7 -33 -11 -8 -17 -17 -14 -21 2 -5 -5 -6 -16 -4 -11 2 -20
-1 -20 -6 0 -6 -4 -8 -8 -5 -4 2 -14 1 -22 -4 -10 -6 -21 -3 -32 7 -10 9 -18
12 -18 7 0 -5 -9 6 -21 25 -11 18 -18 36 -15 39 3 3 0 12 -6 20 -7 8 -13 22
-13 31 0 17 -16 19 -79 6 -32 -6 -37 -5 -31 6 6 11 5 11 -5 2 -7 -6 -20 -9
-29 -7 -9 2 -2 -2 14 -10 17 -8 40 -15 52 -16 30 0 43 -27 31 -61 -9 -25 -13
-27 -51 -24 -64 7 -107 16 -113 26 -8 13 -44 11 -44 -3 0 -6 3 -9 6 -6 3 4 17
0 31 -7 15 -8 30 -12 35 -9 4 3 8 1 8 -3 0 -10 97 -34 120 -30 8 1 20 5 25 8
15 9 78 1 101 -14 39 -24 124 -1 142 39 8 16 20 24 37 24 36 0 39 1 52 12 7 6
13 7 13 3 0 -3 12 3 28 15 26 21 27 26 27 108 0 48 5 96 11 107 29 52 53 104
64 140 6 22 14 47 17 55 4 8 7 17 8 20 25 83 33 99 68 129 38 33 38 34 33 94
-3 35 -12 67 -22 78 -16 18 -18 17 -54 -11 -56 -44 -60 -36 -6 11 25 22 46 47
46 56 0 8 10 29 21 46 l22 32 -30 -30 c-16 -16 -29 -32 -29 -35 1 -5 -13 -12
-15 -7 0 1 4 14 10 29 6 15 8 35 5 43 -4 10 0 15 10 15 20 0 20 10 2 35 -10
14 -11 25 -5 37 5 10 9 33 9 50 -1 18 2 49 5 68 4 19 8 74 9 122 1 75 3 85 16
75 13 -11 13 -10 1 6 -8 9 -16 15 -19 12 -3 -3 -15 3 -26 12 -15 13 -17 14 -9
2 10 -12 10 -18 0 -29 -6 -7 -7 -10 -2 -7 8 4 10 -20 8 -71 -1 -42 -4 -124 -6
-182 -4 -87 -7 -105 -20 -104 -15 1 -17 -20 -2 -33 4 -4 5 -2 1 4 -4 7 -5 13
-2 13 3 0 10 -10 17 -21 7 -13 7 -19 1 -15 -13 8 -24 -9 -29 -43 -12 -86 -17
-95 -69 -126 -24 -14 -44 -28 -44 -31 0 -3 16 4 36 15 20 12 39 20 41 17 3 -3
-18 -17 -47 -31 -29 -15 -49 -21 -44 -14 5 9 2 10 -12 4 -10 -4 -32 -11 -49
-15 l-30 -8 33 -1 c18 -1 31 -5 28 -10 -4 -5 0 -11 6 -13 19 -7 -21 -26 -62
-31 -23 -3 -41 1 -53 11 -17 15 -16 16 10 28 25 11 21 12 -37 8 -287 -17 -382
-12 -426 21 -16 12 -13 12 21 0 68 -24 74 -15 7 9 -35 13 -64 26 -66 27 -29
40 -56 85 -79 129 -26 51 -30 53 -11 5 7 -17 5 -18 -7 -8 -11 9 -19 9 -26 2
-8 -8 -15 2 -25 37 -8 27 -10 50 -6 52 15 7 8 20 -9 18 -12 -1 -19 7 -21 24
-1 14 -4 39 -7 55 -10 73 -11 115 -3 115 7 0 9 -7 7 -27 0 -4 8 -10 17 -13 21
-8 32 -91 11 -86 -7 1 -9 1 -4 -1 4 -3 4 -10 1 -15 -4 -6 -2 -8 4 -4 6 3 13 2
17 -3 3 -5 -3 -15 -12 -21 -17 -10 -16 -10 2 -8 16 2 20 -2 19 -24 -1 -15 3
-25 7 -22 5 3 9 0 9 -7 0 -7 3 -10 6 -6 3 3 -1 27 -10 53 -22 65 -21 213 2
279 37 106 174 271 298 356 98 67 272 102 400 80 147 -25 182 -50 190 -133 2
-22 9 -47 15 -54 6 -7 8 -17 5 -22 -3 -5 3 -17 14 -27 25 -22 27 -43 3 -24
-16 13 -17 12 -4 -3 7 -10 17 -15 22 -12 5 3 8 2 7 -3 -3 -7 5 -13 18 -13 3 0
-4 13 -15 29 -12 16 -21 37 -21 48 0 31 -12 63 -21 57 -5 -3 -6 2 -3 10 3 9
10 16 14 16 5 0 15 2 22 5 9 3 25 -12 42 -40 16 -25 31 -45 33 -45 6 0 -17 42
-38 68 -12 16 -16 33 -12 58 4 26 1 40 -14 57 -11 12 -23 39 -26 60 -12 78
-111 194 -205 240 -34 17 -42 26 -40 47 1 14 -1 31 -6 38 -8 13 -27 17 -25 5
5 -34 -2 -43 -28 -37 -16 4 -42 14 -58 23 -27 15 -29 17 -14 32 10 10 22 13
35 8 33 -13 40 -8 9 6 -44 20 -80 18 -96 -5 -12 -18 -18 -19 -49 -10 -59 18
-259 50 -311 50 -32 0 -53 5 -61 16 -7 8 -21 24 -31 35 -10 11 -19 29 -20 39
-1 11 -3 17 -5 15 -9 -9 -44 34 -37 46 5 8 4 10 -4 5 -6 -4 -14 0 -17 8 -3 9
-10 13 -15 10 -5 -3 -9 2 -9 10 0 8 -6 19 -14 23 -7 4 -21 23 -30 41 -9 18
-27 37 -39 42 -12 5 -18 9 -13 9 11 1 -29 40 -70 69 -17 11 -49 27 -72 35 -35
12 -43 12 -53 1z m776 -462 c204 -53 317 -107 391 -184 54 -57 74 -87 67 -104
-3 -9 2 -14 12 -14 14 0 15 -3 5 -15 -10 -12 -9 -15 6 -16 13 0 9 -4 -9 -9
-19 -6 -43 -3 -73 7 -49 16 -76 7 -58 -20 5 -7 2 -5 -8 5 -19 21 -38 24 -38 6
0 -9 -4 -8 -10 2 -9 13 -11 13 -20 0 -9 -13 -10 -13 -10 0 0 11 -2 12 -8 3
-12 -19 -51 -12 -49 10 1 16 3 16 13 3 14 -20 28 -21 21 -2 -4 11 7 13 51 10
43 -2 50 -1 27 6 -63 16 -232 11 -319 -11 -98 -25 -193 -77 -188 -103 4 -20
-34 -61 -43 -47 -3 5 5 17 17 25 12 9 19 18 15 22 -8 8 -87 -58 -148 -123 -25
-26 -65 -82 -89 -123 -110 -188 -107 -333 10 -564 33 -65 60 -119 60 -121 0
-6 -168 35 -246 60 -70 22 -194 84 -170 85 5 0 -3 11 -19 24 -20 17 -24 25
-14 29 10 4 8 6 -4 6 -10 1 -15 5 -12 11 3 6 1 10 -5 10 -6 0 -9 4 -6 9 3 5
-1 14 -9 21 -8 7 -12 16 -9 21 3 5 1 9 -4 9 -21 0 -76 148 -98 265 -20 101
-16 305 5 297 10 -4 12 1 6 17 -3 12 -3 21 2 20 22 -4 24 3 7 23 -12 13 -13
18 -4 13 21 -13 37 -16 111 -22 77 -6 107 6 175 69 47 44 90 105 80 115 -3 4
-6 1 -6 -4 0 -22 -83 -115 -128 -144 -34 -22 -57 -29 -85 -27 -47 2 -57 14
-19 21 39 8 120 65 151 107 20 28 14 24 -32 -18 -67 -63 -109 -82 -176 -82
-43 0 -53 4 -67 25 -9 14 -13 32 -10 41 5 14 8 14 27 0 16 -11 28 -12 48 -5
14 6 28 11 31 11 23 3 51 26 61 50 7 17 28 49 47 72 19 22 39 53 44 67 7 21
14 25 33 21 15 -2 25 0 25 7 0 6 -11 11 -24 11 -21 0 -44 26 -32 37 9 9 57
-10 66 -27 19 -35 38 -103 35 -121 -2 -11 0 -17 5 -14 4 3 11 -1 14 -7 3 -7 3
1 0 17 -5 24 -3 27 6 15 9 -12 11 -7 6 23 -8 58 -48 104 -104 120 -44 13 -45
14 -24 26 46 24 158 63 222 77 42 8 115 12 210 10 124 -2 162 -7 265 -34z
m-945 -194 c0 -6 -6 -5 -15 2 -8 7 -15 14 -15 16 0 2 7 1 15 -2 8 -4 15 -11
15 -16z m1005 -127 c-3 -5 -1 -12 5 -16 13 -8 13 -25 0 -25 -5 0 -10 7 -10 16
0 8 -5 12 -10 9 -6 -4 -8 -10 -5 -14 5 -8 -69 -34 -82 -29 -5 2 -7 8 -7 15 1
6 -5 9 -14 6 -10 -4 -13 -2 -8 5 8 13 46 12 64 -1 9 -7 17 -6 25 3 10 10 9 12
-5 7 -10 -4 -18 -3 -18 2 0 4 15 13 33 19 17 5 33 10 35 11 2 1 1 -3 -3 -8z
m46 -3 c0 -10 2 -10 6 0 2 6 11 12 19 12 19 0 9 -17 -19 -31 -12 -7 -19 -8
-15 -4 4 5 3 14 -3 22 -9 9 -8 13 0 13 6 0 11 -6 12 -12z m69 -8 c-6 -11 -15
-20 -19 -20 -5 0 -7 9 -4 20 3 11 12 20 20 20 11 0 11 -4 3 -20z m-274 -46
c-22 -22 -20 -25 9 -12 14 6 28 8 32 5 9 -10 1 -16 -27 -20 -12 -2 -28 -11
-35 -20 -7 -9 -15 -17 -19 -17 -13 0 -99 -73 -153 -129 -29 -31 -51 -47 -49
-38 1 10 38 50 82 90 43 40 79 79 79 87 0 8 17 27 40 42 44 31 65 37 41 12z
m604 -95 c8 -15 7 -19 -3 -19 -8 0 -17 11 -19 25 -6 27 6 24 22 -6z m-745 -20
c-4 -5 -13 -9 -21 -9 -8 0 -13 -4 -9 -9 3 -5 -5 -17 -17 -25 -41 -29 -43 -17
-3 24 21 21 42 37 47 34 4 -3 6 -10 3 -15z m-98 -87 c-8 -10 -13 -27 -12 -40
2 -26 -18 -47 -39 -39 -10 4 -14 0 -13 -13 1 -15 4 -17 16 -7 12 10 13 9 3
-10 -14 -26 -52 -54 -64 -47 -4 3 -5 -2 -2 -10 3 -9 10 -14 14 -11 4 3 1 -14
-7 -38 -8 -23 -16 -54 -17 -69 -2 -31 -16 -51 -16 -23 0 14 -3 15 -15 5 -13
-10 -15 -9 -15 10 0 15 4 20 15 17 8 -4 17 -2 20 3 4 6 -3 10 -14 10 -18 0
-19 3 -9 31 6 17 16 33 24 36 7 2 10 11 7 19 -4 12 77 154 110 189 17 19 31 6
14 -13z m-667 -262 c22 14 30 12 30 -9 0 -11 8 -46 19 -80 16 -51 16 -61 4
-65 -28 -11 -39 -6 -56 28 -17 37 -35 150 -20 129 6 -8 14 -9 23 -3z m-30 -81
c0 -11 -4 -17 -10 -14 -5 3 -10 13 -10 21 0 8 5 14 10 14 6 0 10 -9 10 -21z
m188 -263 c11 -25 85 -79 124 -91 12 -4 39 -14 58 -22 19 -8 44 -19 55 -24 11
-4 63 -18 115 -29 52 -12 116 -31 142 -42 25 -12 56 -18 67 -15 11 3 55 1 98
-5 75 -9 208 -17 305 -18 28 0 53 -6 62 -15 10 -11 30 -15 61 -13 40 3 49 8
66 35 11 17 39 43 63 57 24 14 65 41 90 61 l46 35 -4 -30 c-2 -16 0 -27 5 -25
4 3 10 1 14 -4 3 -6 -26 -29 -65 -52 -38 -23 -70 -45 -70 -50 0 -13 5 -12 69
21 32 16 61 27 64 24 3 -3 -2 -18 -9 -34 -19 -36 -131 -85 -235 -101 -123 -19
-473 -6 -654 25 -253 43 -457 115 -481 169 l-11 25 46 -21 c65 -28 140 -47
147 -36 7 12 -4 29 -18 29 -7 0 -49 18 -94 40 -58 28 -83 45 -82 57 0 10 0 23
-2 28 -5 19 0 45 8 45 5 0 14 -11 20 -24z m447 -36 c7 0 16 -7 19 -16 5 -14 4
-15 -9 -4 -13 11 -14 10 -9 -4 3 -9 1 -16 -5 -16 -6 0 -11 6 -11 14 0 8 -2 20
-3 28 -2 7 -2 10 0 6 3 -5 11 -8 18 -8z m41 -67 c-3 -8 -1 -11 4 -8 6 3 10 -1
10 -9 0 -9 5 -16 11 -16 5 0 8 -4 5 -9 -4 -5 0 -11 6 -13 8 -3 5 -9 -9 -16
-20 -11 -24 -9 -38 19 -9 17 -14 37 -11 45 3 9 1 12 -4 9 -6 -3 -10 -2 -10 4
0 11 22 20 33 14 5 -3 6 -12 3 -20z m452 -120 c-26 -2 -71 -2 -100 0 -29 2 -8
3 47 3 55 0 79 -1 53 -3z m322 -133 c0 -5 -5 -10 -11 -10 -5 0 -7 5 -4 10 3 6
8 10 11 10 2 0 4 -4 4 -10z m-92 -385 c-3 -3 -9 2 -12 12 -6 14 -5 15 5 6 7
-7 10 -15 7 -18z"/>
<path d="M920 1912 c0 -12 19 -26 26 -19 2 2 -2 10 -11 17 -9 8 -15 8 -15 2z"/>
<path d="M1001 1904 c0 -11 3 -14 6 -6 3 7 2 16 -1 19 -3 4 -6 -2 -5 -13z"/>
<path d="M1379 1883 c-13 -16 -12 -17 3 -5 9 7 29 12 45 10 24 -2 28 -8 31
-36 4 -39 -12 -62 -42 -62 -29 0 -46 18 -47 50 -2 24 -2 24 -6 2 -11 -59 89
-89 123 -37 10 15 14 34 10 48 -10 43 -91 63 -117 30z m104 -28 c4 -8 2 -17
-3 -20 -6 -4 -10 3 -10 14 0 25 6 27 13 6z"/>
<path d="M981 1853 c-10 -26 -10 -27 4 -9 8 11 15 23 15 28 0 15 -7 8 -19 -19z"/>
<path d="M830 1780 c0 -5 5 -10 11 -10 5 0 7 5 4 10 -3 6 -8 10 -11 10 -2 0
-4 -4 -4 -10z"/>
<path d="M1485 1712 c-19 -13 -37 -42 -27 -42 17 0 56 36 46 43 -6 3 -14 3
-19 -1z"/>
<path d="M1157 1323 c-4 -3 -7 -13 -7 -21 0 -18 13 -7 16 13 2 17 1 18 -9 8z"/>
<path d="M2060 1565 c19 -19 36 -35 39 -35 3 0 -10 16 -29 35 -19 19 -36 35
-39 35 -3 0 10 -16 29 -35z"/>
<path d="M2055 1540 c21 -22 41 -40 44 -40 3 0 -13 18 -34 40 -21 22 -41 40
-44 40 -3 0 13 -18 34 -40z"/>
<path d="M2074 1480 c27 -30 52 -58 56 -62 3 -4 6 1 7 13 1 11 -6 23 -15 26
-9 4 -19 9 -22 12 -3 3 -21 20 -40 36 -25 22 -21 15 14 -25z"/>
<path d="M2051 1471 c7 -10 21 -24 33 -31 15 -9 12 -3 -8 19 -34 35 -41 39
-25 12z"/>
<path d="M1980 1420 c-13 -24 -4 -66 16 -74 33 -13 50 9 45 59 -3 37 -44 47
-61 15z"/>
<path d="M2251 1424 c0 -11 3 -14 6 -6 3 7 2 16 -1 19 -3 4 -6 -2 -5 -13z"/>
<path d="M2262 1375 c0 -16 2 -22 5 -12 2 9 2 23 0 30 -3 6 -5 -1 -5 -18z"/>
<path d="M1566 1364 c-31 -30 -9 -84 35 -84 27 0 42 42 27 75 -13 28 -39 32
-62 9z"/>
<path d="M2263 1265 c0 -22 2 -30 4 -17 2 12 2 30 0 40 -3 9 -5 -1 -4 -23z"/>
<path d="M1816 1188 c-12 -13 -35 -30 -51 -38 -15 -8 -36 -33 -46 -54 -15 -34
-16 -45 -5 -70 15 -38 105 -94 117 -74 5 7 9 9 9 3 0 -5 6 1 13 15 8 17 21 25
37 25 23 0 25 -3 25 -53 0 -28 3 -52 8 -52 4 0 7 22 7 49 0 46 2 50 27 53 14
2 35 15 47 31 19 26 19 30 6 70 -9 23 -24 46 -36 51 -11 5 -28 22 -37 38 -13
24 -23 28 -57 28 -29 0 -47 -7 -64 -22z m79 -28 c1 -31 -9 -38 -41 -32 -42 8
-23 66 21 60 14 -2 20 -11 20 -28z m-79 -75 c-3 -8 -1 -15 3 -15 5 0 8 -6 7
-12 -3 -23 -17 -38 -34 -38 -13 0 -13 2 4 15 11 8 14 15 7 15 -14 0 -13 18 2
37 14 17 18 16 11 -2z m125 -58 c-10 -9 -11 -8 -5 6 3 10 9 15 12 12 3 -3 0
-11 -7 -18z"/>
<path d="M2251 1194 c0 -11 3 -14 6 -6 3 7 2 16 -1 19 -3 4 -6 -2 -5 -13z"/>
<path d="M2236 1144 c-4 -14 -5 -28 -3 -31 3 -2 8 8 11 23 4 14 5 28 3 31 -3
2 -8 -8 -11 -23z"/>
<path d="M1130 1153 c0 -4 5 -15 10 -23 8 -13 10 -13 10 2 0 9 -4 20 -10 23
-5 3 -10 3 -10 -2z"/>
<path d="M2216 1085 c-9 -26 -7 -32 5 -12 6 10 9 21 6 23 -2 3 -7 -2 -11 -11z"/>
<path d="M2187 1015 c-9 -19 -15 -35 -12 -35 7 0 37 61 33 66 -3 2 -12 -12
-21 -31z"/>
<path d="M1823 904 c19 -19 33 -24 54 -21 27 4 27 4 -4 6 -26 1 -33 5 -33 21
0 14 -7 20 -21 20 -21 0 -21 -1 4 -26z"/>
<path d="M1463 723 c9 -2 23 -2 30 0 6 3 -1 5 -18 5 -16 0 -22 -2 -12 -5z"/>
<path d="M1878 703 c7 -3 16 -2 19 1 4 3 -2 6 -13 5 -11 0 -14 -3 -6 -6z"/>
<path d="M1975 539 c4 -5 11 -7 16 -4 5 4 9 1 9 -5 0 -6 5 -8 11 -5 13 9 7 15
-20 20 -12 2 -19 0 -16 -6z"/>
</g>
</svg>
